<?xml version="1.0" standalone="no"?><!DOCTYPE svg PUBLIC "-//W3C//DTD SVG 1.1//EN" "http://www.w3.org/Graphics/SVG/1.1/DTD/svg11.dtd"><svg t="1775553810126" class="icon" viewBox="0 0 1024 1024" version="1.1" xmlns="http://www.w3.org/2000/svg" p-id="1676" xmlns:xlink="http://www.w3.org/1999/xlink" width="200" height="200"><path d="M469.376 850.624a341.504 341.504 0 0 1-296.128-296h-66.56a21.376 21.376 0 0 1-21.312-21.248v-42.752c0-11.712 9.536-21.248 21.248-21.248h66.624a341.504 341.504 0 0 1 296.128-296.128v-66.56c0-11.712 9.472-21.312 21.248-21.312h42.752c11.712 0 21.248 9.536 21.248 21.248v66.624a341.504 341.504 0 0 1 296 296.128h66.752c11.712 0 21.248 9.536 21.248 21.248v42.752c0 11.712-9.536 21.248-21.248 21.248H850.56a341.504 341.504 0 0 1-296 296v66.752c0 11.712-9.536 21.248-21.248 21.248h-42.752a21.376 21.376 0 0 1-21.248-21.248V850.56zM512 768a256 256 0 1 0 0-512 256 256 0 0 0 0 512z m0-128a128 128 0 1 1 0-256 128 128 0 0 1 0 256z" p-id="1677" data-spm-anchor-id="a313x.search_index.0.i0.70003a815Z69tK" class="selected" fill="#1296db"></path></svg>