<?xml version="1.0" standalone="no"?><!DOCTYPE svg PUBLIC "-//W3C//DTD SVG 1.1//EN" "http://www.w3.org/Graphics/SVG/1.1/DTD/svg11.dtd"><svg t="1776319312017" class="icon" viewBox="0 0 1024 1024" version="1.1" xmlns="http://www.w3.org/2000/svg" p-id="11974" xmlns:xlink="http://www.w3.org/1999/xlink" width="200" height="200"><path d="M584.25082667 568.44423878a32.42884313 32.42884313 0 0 1 33.00908027-7.73650296l340.08379323 113.21083189a32.23543102 32.23543102 0 0 1 2.44989262 60.21578465l-146.73568039 62.92356005-62.92356005 146.80015109a32.42884313 32.42884313 0 0 1-29.65659614 19.53467123h-1.28941744a32.23543102 32.23543102 0 0 1-29.26977107-22.04903455L576.51432284 601.51779063a32.36437242 32.36437242 0 0 1 7.73650383-33.00908115zM818.02216924 60.60726526a32.23543102 32.23543102 0 0 1 32.23543017 32.23543103v386.82516707a32.23543102 32.23543102 0 0 1-64.4708612 0V125.07812645H141.07812644v773.65033414h354.58973691a32.23543102 32.23543102 0 0 1 0 64.47086117h-386.82516707a32.23543102 32.23543102 0 0 1-32.23543103-32.23543014V92.84269629A32.23543102 32.23543102 0 0 1 108.84269628 60.60726526zM658.13443331 642.13443332l66.082633 198.44131107 34.6208521-80.78198966a32.49331381 32.49331381 0 0 1 16.95583631-16.95583631l80.6530474-34.5563814L658.13443331 642.13443332zM431.19700216 447.43243234a32.23543102 32.23543102 0 0 1 32.23543017 32.23543102v128.94172235a32.23543102 32.23543102 0 0 1-32.23543017 32.23543017h-193.41258352a32.23543102 32.23543102 0 0 1-32.23543102-32.23543017v-128.94172235a32.23543102 32.23543102 0 0 1 32.23543102-32.23543102zM398.96157115 511.90329351H270.01984879v64.47086118h128.94172236V511.90329351z m290.11887573-322.35430588a32.23543102 32.23543102 0 0 1 32.23543016 32.23543102v128.94172235a32.23543102 32.23543102 0 0 1-32.23543016 32.23543016h-451.29602824a32.23543102 32.23543102 0 0 1-32.23543102-32.23543016v-128.94172235a32.23543102 32.23543102 0 0 1 32.23543102-32.23543102zM656.84501587 254.0198488H270.01984879v64.47086117h386.82516708V254.0198488z" fill="#1296db" p-id="11975"></path></svg>